# xmcd
#
# Track frame offsets:
#	183
#	22565
#	41393
#	63673
#	82915
#	107233
#	131708
#	150915
#	170235
#	193303
#	218813
#
# Disc length: 3148 seconds
#
# Revision: 0
# Processed by: cddbd v1.5PL3 Copyright (c) Steve Scherf et al.
# Submitted via: dBpowerAMP V4.0
#
DISCID=8e0c4a0b
DTITLE=草蜢 - La La Means I Love You
DYEAR=1900
DGENRE=
TTITLE0=三分鐘放蹤
TTITLE1=A.E.I.O.U
TTITLE2=夜性感
TTITLE3=仍然能自己
TTITLE4=起舞吧
TTITLE5=點解
TTITLE6=每一些也是情
TTITLE7=La La Means I Love You
TTITLE8=情難禁
TTITLE9=下次遇見你
TTITLE10=妒忌
EXTD=
EXTT0=
EXTT1=
EXTT2=
EXTT3=
EXTT4=
EXTT5=
EXTT6=
EXTT7=
EXTT8=
EXTT9=
EXTT10=
PLAYORDER=
